<?xml version="1.0" encoding="UTF-8"?>
<svg width="200px" height="200px" viewBox="0 0 200 200" version="1.1" xmlns="http://www.w3.org/2000/svg">
    <g stroke="none" stroke-width="1" fill="none" fill-rule="evenodd">
        <g transform="translate(10.000000, 20.000000)" fill="#00E5FF" fill-opacity="0.6">
            <!-- Center Body -->
            <rect x="70" y="50" width="40" height="20" rx="4"/>
            
            <!-- Arms -->
            <rect x="0" y="45" width="70" height="8" rx="2" transform="translate(35.000000, 49.000000) rotate(-25.000000) translate(-35.000000, -49.000000)"/>
            <rect x="110" y="45" width="70" height="8" rx="2" transform="translate(145.000000, 49.000000) scale(-1, 1) rotate(-25.000000) translate(-145.000000, -49.000000)"/>
            <rect x="0" y="67" width="70" height="8" rx="2" transform="translate(35.000000, 71.000000) rotate(25.000000) translate(-35.000000, -71.000000)"/>
            <rect x="110" y="67" width="70" height="8" rx="2" transform="translate(145.000000, 71.000000) scale(-1, 1) rotate(25.000000) translate(-145.000000, -71.000000)"/>
            
            <!-- Motors -->
            <circle cx="0" cy="45" r="12"/>
            <circle cx="180" cy="45" r="12"/>
            <circle cx="0" cy="75" r="12"/>
            <circle cx="180" cy="75" r="12"/>
            
            <!-- Propellers -->
            <rect x="-20" y="43" width="40" height="4" rx="2"/>
            <rect x="160" y="43" width="40" height="4" rx="2"/>
            <rect x="-20" y="73" width="40" height="4" rx="2"/>
            <rect x="160" y="73" width="40" height="4" rx="2"/>
            
            <!-- Camera Mount -->
            <path d="M85,70 L95,70 L95,95 C95,97.7614237 92.7614237,100 90,100 C87.2385763,100 85,97.7614237 85,95 L85,70 Z"/>
            
            <!-- Camera -->
            <rect x="80" y="100" width="20" height="15" rx="2"/>
            
            <!-- Sensor Elements -->
            <circle cx="90" cy="55" r="3"/>
            <circle cx="75" cy="55" r="2"/>
            <circle cx="105" cy="55" r="2"/>
        </g>
    </g>
</svg>
